<svg version="1.2" xmlns="http://www.w3.org/2000/svg" viewBox="0 0 779 689" width="779" height="689">
	<style>
		.s0 { fill: #ffffff } 
	</style>
	<g>
		<path class="s0" d="m809.84 331.35c0 111.96 71.9 190.02 171.53 190.02 99.64 0 171.54-78.06 171.54-190.02 0-111.96-71.9-190.03-171.54-190.03-99.63 0-171.53 78.07-171.53 190.03zm277.33 0c0 80.12-43.65 131.99-105.8 131.99-62.14 0-105.79-51.87-105.79-131.99 0-80.12 43.65-131.99 105.79-131.99 62.15 0 105.8 51.87 105.8 131.99zm250.87 190.02c75.49 0 118.63-63.68 118.63-140.2 0-76.53-43.14-140.21-118.63-140.21-34.93 0-60.61 13.86-77.55 33.89v-28.76h-61.63v362.08h61.63v-120.69c16.94 20.03 42.62 33.89 77.55 33.89zm-79.1-147.91c0-50.84 28.77-78.58 66.77-78.58 44.68 0 68.82 34.93 68.82 86.29 0 51.35-24.14 86.28-68.82 86.28-38 0-66.77-28.25-66.77-78.07zm364.52 147.91c53.93 0 96.56-28.24 115.56-75.49l-52.9-20.03c-8.22 27.73-32.36 43.14-62.66 43.14-39.54 0-67.28-28.25-71.9-74.47h189v-20.54c0-73.96-41.6-133.02-119.67-133.02-78.06 0-128.39 61.11-128.39 140.21 0 83.2 53.92 140.2 130.96 140.2zm-3.08-228.54c39.03 0 57.52 25.68 58.03 55.47h-123.77c9.25-36.47 33.9-55.47 65.74-55.47zm166.42 222.9h61.63v-158.19c0-38.52 28.25-59.06 55.98-59.06 33.9 0 47.25 24.14 47.25 57.52v159.73h61.63v-177.7c0-58.04-33.89-97.07-90.39-97.07-34.92 0-59.06 15.92-74.47 33.89v-28.76h-61.63zm407-368.75l-139.7 368.75h65.23l31.33-84.22h159.21l31.84 84.22h66.25l-139.69-368.75zm35.95 72.93l58.55 154.07h-116.07zm284.01-71.85h-65.74v368.75h65.74zm-1854.53 134.37c3.82-11.5 6.42-23.37 7.73-35.41 1.31-12.04 1.34-24.19 0.08-36.24-1.26-12.05-3.8-23.93-7.58-35.44-3.78-11.51-8.77-22.58-14.89-33.04-37.37-65.05-112.48-98.52-185.83-82.77-8.04-9.06-17.03-17.24-26.8-24.4-9.77-7.15-20.28-13.25-31.34-18.18-11.07-4.94-22.63-8.68-34.48-11.16-11.86-2.49-23.94-3.71-36.06-3.63-74.98-0.17-141.51 48.1-164.58 119.45-11.87 2.43-23.45 6.12-34.54 11-11.09 4.88-21.63 10.93-31.44 18.05-9.81 7.11-18.83 15.25-26.92 24.28-8.08 9.03-15.18 18.89-21.18 29.42-37.64 64.88-29.06 146.67 21.23 202.31-3.83 11.49-6.42 23.36-7.74 35.41-1.31 12.04-1.34 24.19-0.08 36.24 1.26 12.04 3.81 23.92 7.58 35.43 3.78 11.51 8.77 22.59 14.9 33.04 37.36 65.06 112.47 98.53 185.83 82.78 8.04 9.06 17.02 17.24 26.79 24.39 9.77 7.16 20.28 13.26 31.35 18.19 11.06 4.93 22.62 8.67 34.48 11.15 11.85 2.48 23.94 3.7 36.05 3.62 75.03 0.19 141.58-48.13 164.65-119.54 11.87-2.43 23.45-6.12 34.54-11 11.09-4.89 21.63-10.94 31.44-18.05 9.81-7.12 18.83-15.26 26.92-24.28 8.08-9.03 15.18-18.89 21.18-29.42 37.6-64.89 28.99-146.61-21.27-202.25zm-257.39 359.75c-7.44 0.01-14.86-0.63-22.18-1.91-7.32-1.27-14.52-3.19-21.51-5.71-6.99-2.53-13.75-5.66-20.2-9.36-6.45-3.71-12.56-7.96-18.27-12.73 1.05-0.55 2.87-1.56 4.05-2.29l136.36-78.74q2.56-1.47 4.66-3.55 2.1-2.08 3.58-4.64 1.47-2.56 2.23-5.41 0.76-2.86 0.74-5.81v-192.23l57.63 33.27c0.62 0.3 1.02 0.9 1.11 1.59v159.19c-0.09 70.78-57.41 128.18-128.2 128.33zm-275.71-117.76c-3.73-6.44-6.88-13.18-9.43-20.16-2.56-6.98-4.49-14.17-5.8-21.49-1.3-7.31-1.96-14.73-1.97-22.16-0.02-7.44 0.62-14.85 1.9-22.18 1 0.6 2.78 1.69 4.04 2.42l136.36 78.75c6.91 4.05 15.47 4.05 22.4 0l166.47-96.12v66.55c0.04 0.68-0.28 1.35-0.81 1.77l-137.84 79.59c-61.39 35.35-139.8 14.34-175.3-46.97zm-35.89-297.65c14.98-26.02 38.63-45.92 66.79-56.26 0 1.18-0.06 3.26-0.06 4.71v157.52c-0.05 8.01 4.23 15.43 11.19 19.39l166.46 96.1-57.63 33.28c-0.57 0.39-1.3 0.45-1.94 0.17l-137.86-79.65c-61.26-35.48-82.28-113.86-46.97-175.24zm473.48 110.19l-166.46-96.13 57.63-33.25c0.57-0.39 1.3-0.45 1.94-0.17l137.86 79.58c61.37 35.46 82.41 113.97 46.95 175.35-3.72 6.43-7.98 12.53-12.75 18.22-4.77 5.7-10.02 10.97-15.7 15.75-5.68 4.79-11.77 9.07-18.19 12.8-6.42 3.73-13.16 6.9-20.13 9.47v-162.23c0.07-8.01-4.19-15.41-11.15-19.39zm57.35-86.33c-1-0.62-2.78-1.69-4.04-2.41l-136.36-78.75q-2.55-1.49-5.4-2.26-2.85-0.78-5.8-0.78-2.95 0-5.8 0.78-2.85 0.77-5.4 2.26l-166.47 96.12v-66.55c-0.04-0.68 0.28-1.35 0.81-1.78l137.84-79.52c61.39-35.41 139.89-14.33 175.28 47.08 3.7 6.43 6.84 13.16 9.39 20.13 2.54 6.96 4.47 14.14 5.77 21.44 1.3 7.3 1.97 14.7 1.99 22.12 0.03 7.41-0.59 14.82-1.85 22.12zm-360.6 118.62l-57.65-33.27q-0.23-0.12-0.42-0.28-0.19-0.17-0.34-0.37-0.14-0.21-0.23-0.45-0.09-0.24-0.12-0.49v-159.19c0.04-70.87 57.54-128.31 128.41-128.27 29.99 0 59 10.53 82.05 29.71-1.05 0.55-2.85 1.56-4.04 2.29l-136.36 78.75q-2.57 1.45-4.67 3.53-2.09 2.08-3.57 4.64-1.48 2.55-2.24 5.41-0.75 2.85-0.73 5.8l-0.09 192.15zm31.31-67.5l74.15-42.82 74.14 42.8v85.62l-74.14 42.8-74.15-42.8z"/>
	</g>
</svg>